<svg width="101" height="30" viewBox="0 0 101 30" fill="none" xmlns="http://www.w3.org/2000/svg">
<path d="M99.4224 26.4644C99.4224 26.8373 99.3489 27.2066 99.2061 27.5511C99.0632 27.8956 98.8539 28.2085 98.59 28.4721C98.3261 28.7356 98.0128 28.9446 97.6681 29.0871C97.3233 29.2295 96.9539 29.3026 96.5809 29.3022H3.5906C2.83691 29.303 2.11377 29.0045 1.5802 28.4723C1.04664 27.9401 0.746344 27.2179 0.745361 26.4644V3.83371C0.746343 3.07988 1.04652 2.35725 1.57998 1.82449C2.11344 1.29173 2.83657 0.992383 3.5906 0.992188H96.5802C96.9534 0.992187 97.3229 1.06569 97.6677 1.2085C98.0125 1.35131 98.3258 1.56063 98.5897 1.8245C98.8535 2.08837 99.0628 2.40162 99.2056 2.74636C99.3484 3.09111 99.4218 3.46059 99.4217 3.83371L99.4224 26.4644Z" fill="white"/>
<path d="M96.5808 29.9627H3.59055C2.66209 29.9625 1.77163 29.5941 1.11455 28.9383C0.457477 28.2825 0.08746 27.3929 0.0856934 26.4647L0.0856934 3.83471C0.0870669 2.90604 0.45684 2.01583 1.11389 1.35937C1.77095 0.702901 2.66163 0.333792 3.59055 0.333008L96.5801 0.333008C97.5089 0.334183 98.3994 0.703418 99.0563 1.3598C99.7133 2.01618 100.083 2.90616 100.085 3.83471V26.4647C100.086 28.3941 98.5115 29.9627 96.5808 29.9627Z" fill="#A6A6A6"/>
<path d="M99.4224 26.4644C99.4224 26.8373 99.3489 27.2066 99.2061 27.5511C99.0632 27.8956 98.8539 28.2085 98.59 28.4721C98.3261 28.7356 98.0128 28.9446 97.6681 29.0871C97.3233 29.2295 96.9539 29.3026 96.5809 29.3022H3.5906C2.83691 29.303 2.11377 29.0045 1.5802 28.4723C1.04664 27.9401 0.746344 27.2179 0.745361 26.4644V3.83371C0.746343 3.07988 1.04652 2.35725 1.57998 1.82449C2.11344 1.29173 2.83657 0.992383 3.5906 0.992188H96.5802C96.9534 0.992187 97.3229 1.06569 97.6677 1.2085C98.0125 1.35131 98.3258 1.56063 98.5897 1.8245C98.8535 2.08837 99.0628 2.40162 99.2056 2.74636C99.3484 3.09111 99.4218 3.46059 99.4217 3.83371L99.4224 26.4644Z" fill="black"/>
<path d="M22.4149 14.9919C22.3934 12.6038 24.3708 11.442 24.4612 11.3879C23.3413 9.7556 21.6056 9.53257 20.9956 9.51479C19.5378 9.36141 18.1237 10.3869 17.3811 10.3869C16.6236 10.3869 15.48 9.52961 14.2475 9.5548C12.6615 9.57925 11.1777 10.4973 10.3639 11.9229C8.68452 14.8296 9.93705 19.1011 11.5461 21.4507C12.3509 22.6021 13.2915 23.8862 14.5225 23.841C15.7268 23.7921 16.1767 23.0741 17.6301 23.0741C19.0701 23.0741 19.4926 23.841 20.7481 23.8121C22.0406 23.7921 22.8544 22.6562 23.6311 21.4951C24.5613 20.177 24.9348 18.8774 24.9496 18.8107C24.92 18.8003 22.4401 17.8534 22.4149 14.9919ZM20.0433 7.96918C20.691 7.15932 21.1342 6.05754 21.0112 4.93945C20.0736 4.98095 18.9012 5.58778 18.226 6.37985C17.6286 7.07782 17.095 8.22184 17.2328 9.29769C18.286 9.37623 19.3673 8.76643 20.0433 7.96918Z" fill="white"/>
<path d="M96.5809 0.333008H46.7725L66.2815 29.9627H96.5809C97.5095 29.9619 98.4 29.593 99.057 28.9368C99.714 28.2807 100.084 27.3909 100.086 26.4624V3.83471C100.084 2.9061 99.7143 2.016 99.0573 1.35958C98.4003 0.70316 97.5097 0.333987 96.5809 0.333008Z" fill="url(#paint0_linear_506_16)"/>
<path d="M39.8592 23.6764H38.1761L37.2541 20.78H34.0494L33.1711 23.6764H31.5325L34.7083 13.8159H36.6693L39.8592 23.6764ZM36.9762 19.5649L36.1424 16.9901C36.0542 16.7271 35.8882 16.1076 35.6451 15.1325H35.6154C35.5176 15.5519 35.3612 16.1714 35.147 16.9901L34.3273 19.5649H36.9762ZM48.0103 20.0339C48.0103 21.2431 47.6819 22.1989 47.0246 22.9006C46.4361 23.5252 45.7046 23.8372 44.8323 23.8372C43.8903 23.8372 43.2129 23.5015 42.8015 22.8287V26.5594H41.2214V18.9032C41.2214 18.1437 41.2014 17.365 41.1629 16.5663H42.5525L42.6407 17.6933H42.6703C43.1973 16.8441 43.997 16.4196 45.0702 16.4196C45.9091 16.4196 46.6095 16.7508 47.1698 17.4139C47.7294 18.0785 48.0103 18.9514 48.0103 20.0339ZM46.4005 20.0917C46.4005 19.3997 46.2449 18.8291 45.9321 18.3794C45.5904 17.9118 45.1317 17.6777 44.5565 17.6777C44.1667 17.6777 43.8124 17.8081 43.496 18.0652C43.1788 18.3245 42.9713 18.6632 42.8742 19.0825C42.8308 19.2394 42.8062 19.4008 42.8008 19.5634V20.7497C42.8008 21.2661 42.9594 21.7025 43.2766 22.0596C43.5938 22.4153 44.0059 22.5939 44.5128 22.5939C45.108 22.5939 45.5712 22.3634 45.9025 21.9063C46.2345 21.4476 46.4005 20.843 46.4005 20.0917ZM56.1902 20.0339C56.1902 21.2431 55.8619 22.1989 55.2045 22.9006C54.6153 23.5252 53.8846 23.8372 53.0115 23.8372C52.0695 23.8372 51.3921 23.5015 50.9808 22.8287V26.5594H49.4007V18.9032C49.4007 18.1437 49.3806 17.365 49.3421 16.5663H50.7317L50.8199 17.6933H50.8496C51.3758 16.8441 52.1755 16.4196 53.2494 16.4196C54.0876 16.4196 54.788 16.7508 55.3498 17.4139C55.9086 18.0785 56.1902 18.9514 56.1902 20.0339ZM54.5797 20.0917C54.5797 19.3997 54.4234 18.8291 54.1106 18.3794C53.7689 17.9118 53.3117 17.6777 52.7365 17.6777C52.3467 17.6777 51.9924 17.8081 51.6745 18.0652C51.3573 18.3245 51.1505 18.6632 51.0534 19.0825C51.0052 19.2781 50.9793 19.4374 50.9793 19.5634V20.7497C50.9793 21.2661 51.1386 21.7025 51.4544 22.0596C51.7716 22.4146 52.1836 22.5939 52.6921 22.5939C53.2879 22.5939 53.7512 22.3634 54.0817 21.9063C54.4137 21.4476 54.5797 20.843 54.5797 20.0917ZM65.3359 20.9104C65.3359 21.7499 65.0424 22.4323 64.4592 22.9592C63.8173 23.5341 62.9213 23.8224 61.7725 23.8224C60.7112 23.8224 59.8604 23.6179 59.2186 23.2081L59.5839 21.8914C60.2769 22.3019 61.0381 22.5064 61.8667 22.5064C62.4625 22.5064 62.9257 22.3716 63.2563 22.1041C63.5876 21.8359 63.7551 21.4773 63.7551 21.0297C63.7551 20.6289 63.6165 20.2932 63.3445 20.0198C63.071 19.7472 62.6189 19.493 61.9838 19.2596C60.2569 18.6157 59.3927 17.674 59.3927 16.4351C59.3927 15.626 59.6981 14.9636 60.3073 14.4457C60.9165 13.9285 61.7244 13.6699 62.7293 13.6699C63.6269 13.6699 64.3747 13.8263 64.9683 14.1382L64.5718 15.426C64.013 15.1237 63.3823 14.9725 62.6767 14.9725C62.1194 14.9725 61.6821 15.1096 61.3693 15.3822C61.1062 15.626 60.9728 15.9231 60.9728 16.2758C60.9728 16.6648 61.1248 16.9879 61.4272 17.2413C61.6895 17.4747 62.1683 17.7288 62.8605 18.0015C63.7099 18.3438 64.3339 18.7424 64.7334 19.2003C65.1358 19.6582 65.3359 20.2295 65.3359 20.9104ZM70.5736 17.7518H68.8319V21.2039C68.8319 22.0819 69.1387 22.5198 69.7539 22.5198C70.0363 22.5198 70.2705 22.4961 70.4557 22.4464L70.4995 23.646C70.1882 23.7623 69.7783 23.8209 69.2707 23.8209C68.6466 23.8209 68.1589 23.6304 67.8069 23.2496C67.4563 22.8688 67.28 22.2308 67.28 21.3328V17.7488H66.2424V16.5633H67.28V15.2615L68.8319 14.7932V16.5633H70.5736V17.7518ZM78.4163 20.0628C78.4163 21.1557 78.1036 22.053 77.4795 22.7547C76.8266 23.4771 75.958 23.8372 74.8752 23.8372C73.8302 23.8372 72.9993 23.4911 72.3797 22.7998C71.7602 22.1071 71.4504 21.2342 71.4504 20.1813C71.4504 19.0796 71.7705 18.1771 72.4087 17.4754C73.0483 16.773 73.9095 16.4218 74.9923 16.4218C76.0358 16.4218 76.874 16.7686 77.5084 17.4606C78.1147 18.1319 78.4163 18.9988 78.4163 20.0628ZM76.7784 20.0991C76.7784 19.4478 76.6376 18.8891 76.3552 18.4216C76.0239 17.857 75.5496 17.5747 74.9352 17.5747C74.3023 17.5747 73.8168 17.857 73.4863 18.4216C73.2032 18.8891 73.0623 19.4574 73.0623 20.1287C73.0623 20.7808 73.2032 21.3409 73.4863 21.807C73.8279 22.3716 74.3045 22.6539 74.9219 22.6539C75.5259 22.6539 75.9995 22.3657 76.3419 21.7929C76.6324 21.3143 76.7784 20.7519 76.7784 20.0991ZM83.5547 17.9555C83.3903 17.9259 83.2236 17.9113 83.0566 17.9118C82.5008 17.9118 82.0709 18.1208 81.7685 18.5416C81.5062 18.9121 81.3742 19.3804 81.3742 19.9457V23.6764H79.7941V18.8054C79.7955 18.059 79.7802 17.3127 79.7482 16.567H81.1245L81.1823 17.9274H81.226C81.3935 17.4599 81.6559 17.0827 82.0161 16.8004C82.3458 16.5537 82.7464 16.4202 83.1582 16.4196C83.3042 16.4196 83.4361 16.4299 83.5532 16.4485L83.5547 17.9555ZM90.6215 19.7849C90.6255 20.0251 90.6061 20.265 90.5637 20.5014H85.8233C85.8411 21.2039 86.0709 21.7418 86.5111 22.1123C86.9106 22.4427 87.4271 22.6087 88.0616 22.6087C88.7634 22.6087 89.4038 22.4975 89.9796 22.273L90.2272 23.3689C89.5542 23.6623 88.7597 23.8083 87.8429 23.8083C86.7401 23.8083 85.8745 23.4837 85.2445 22.8362C84.616 22.1878 84.301 21.3165 84.301 20.2251C84.301 19.1537 84.5938 18.2608 85.18 17.5488C85.7937 16.7886 86.623 16.4085 87.6665 16.4085C88.6915 16.4085 89.4675 16.7886 89.9945 17.5488C90.4117 18.1512 90.6215 18.898 90.6215 19.7849ZM89.1147 19.3752C89.1258 18.9062 89.0221 18.5024 88.8079 18.1608C88.5344 17.7207 88.1134 17.5013 87.5494 17.5013C87.0329 17.5013 86.6119 17.7155 86.2917 18.1452C86.0286 18.4868 85.8722 18.8973 85.8241 19.3737L89.1147 19.3752Z" fill="white"/>
<path d="M33.5934 10.3292C33.1539 10.3292 32.7737 10.3077 32.4573 10.2714V5.50412C32.8999 5.43576 33.3472 5.40207 33.795 5.40335C35.6071 5.40335 36.4417 6.29471 36.4417 7.7477C36.4417 9.42372 35.4559 10.3292 33.5934 10.3292ZM33.8588 6.01463C33.6142 6.01463 33.4059 6.02945 33.2332 6.06501V9.68898C33.3266 9.7038 33.506 9.71047 33.758 9.71047C34.9453 9.71047 35.6212 9.03472 35.6212 7.76919C35.6212 6.64073 35.0098 6.01463 33.8588 6.01463ZM39.0423 10.3655C38.021 10.3655 37.3592 9.60303 37.3592 8.56793C37.3592 7.48911 38.0351 6.72001 39.1001 6.72001C40.1066 6.72001 40.7833 7.44614 40.7833 8.51087C40.7833 9.60303 40.0858 10.3655 39.0423 10.3655ZM39.072 7.28757C38.5109 7.28757 38.1515 7.81216 38.1515 8.5457C38.1515 9.26516 38.5183 9.78975 39.0645 9.78975C39.6108 9.78975 39.9776 9.22885 39.9776 8.53088C39.9776 7.81957 39.6182 7.28757 39.072 7.28757ZM46.6071 6.79188L45.514 10.2862H44.8017L44.3489 8.76872C44.2363 8.39754 44.1425 8.02091 44.068 7.64026H44.0532C43.9961 8.02111 43.8879 8.4027 43.773 8.76872L43.2913 10.2862H42.5716L41.5429 6.79188H42.3411L42.7369 8.45308C42.8303 8.84875 42.9089 9.22218 42.9741 9.57487H42.9889C43.046 9.28072 43.1393 8.91321 43.2765 8.46049L43.773 6.79262H44.406L44.881 8.42493C44.9959 8.82059 45.0893 9.20885 45.1619 9.57561H45.1827C45.2331 9.21626 45.3124 8.83467 45.4198 8.42493L45.8445 6.79262L46.6071 6.79188ZM50.6315 10.2862H49.8548V8.2797C49.8548 7.66175 49.6177 7.35204 49.15 7.35204C48.6898 7.35204 48.3733 7.7477 48.3733 8.20783V10.2862H47.5966V7.79068C47.5966 7.4817 47.5892 7.1505 47.5677 6.79114H48.251L48.2873 7.33055H48.3088C48.5178 6.95711 48.9417 6.72001 49.4168 6.72001C50.1505 6.72001 50.6323 7.28091 50.6323 8.19375L50.6315 10.2862ZM52.7734 10.2862H51.996V5.18848H52.7734V10.2862ZM55.6053 10.3655C54.5848 10.3655 53.9222 9.60303 53.9222 8.56793C53.9222 7.48911 54.5981 6.72001 55.6624 6.72001C56.6696 6.72001 57.3455 7.44614 57.3455 8.51087C57.3463 9.60303 56.6481 10.3655 55.6053 10.3655ZM55.6342 7.28757C55.0732 7.28757 54.7138 7.81216 54.7138 8.5457C54.7138 9.26516 55.0814 9.78975 55.6261 9.78975C56.1731 9.78975 56.5392 9.22885 56.5392 8.53088C56.5399 7.81957 56.1812 7.28757 55.6342 7.28757ZM60.4079 10.2862L60.3516 9.88385H60.3309C60.0937 10.2076 59.7476 10.3655 59.3088 10.3655C58.6826 10.3655 58.2379 9.92682 58.2379 9.33703C58.2379 8.47457 58.9857 8.02852 60.2805 8.02852V7.96406C60.2805 7.50393 60.0366 7.2735 59.5549 7.2735C59.2103 7.2735 58.9079 7.36019 58.6418 7.53283L58.4839 7.02232C58.8071 6.82078 59.2103 6.72001 59.6838 6.72001C60.5969 6.72001 61.0579 7.20162 61.0579 8.16559V9.45262C61.0579 9.80531 61.0735 10.0787 61.1083 10.2869L60.4079 10.2862ZM60.3012 8.5457C59.4385 8.5457 59.0057 8.75465 59.0057 9.25034C59.0057 9.61711 59.2288 9.79642 59.5386 9.79642C59.9336 9.79642 60.3012 9.49485 60.3012 9.08511V8.5457ZM64.8296 10.2862L64.7933 9.72528H64.7718C64.5487 10.1491 64.1737 10.3655 63.6497 10.3655C62.807 10.3655 62.183 9.62452 62.183 8.58201C62.183 7.48911 62.83 6.71927 63.7134 6.71927C64.1811 6.71927 64.5124 6.87709 64.6992 7.19422H64.7147V5.18848H65.4922V9.34444C65.4922 9.68231 65.5003 9.99869 65.5211 10.2862H64.8296ZM64.7147 8.23006C64.7147 7.74103 64.3908 7.32388 63.8965 7.32388C63.3206 7.32388 62.9686 7.83439 62.9686 8.55311C62.9686 9.25775 63.334 9.7401 63.8809 9.7401C64.3693 9.7401 64.7147 9.31554 64.7147 8.81244V8.23006ZM70.4215 10.3655C69.401 10.3655 68.7391 9.60303 68.7391 8.56793C68.7391 7.48911 69.415 6.72001 70.4793 6.72001C71.4865 6.72001 72.1624 7.44614 72.1624 8.51087C72.1632 9.60303 71.4658 10.3655 70.4215 10.3655ZM70.4504 7.28757C69.8901 7.28757 69.5306 7.81216 69.5306 8.5457C69.5306 9.26516 69.8975 9.78975 70.443 9.78975C70.99 9.78975 71.3561 9.22885 71.3561 8.53088C71.3576 7.81957 70.9981 7.28757 70.4504 7.28757ZM76.3395 10.2862H75.5621V8.2797C75.5621 7.66175 75.3249 7.35204 74.8572 7.35204C74.397 7.35204 74.0813 7.7477 74.0813 8.20783V10.2862H73.3038V7.79068C73.3038 7.4817 73.2964 7.1505 73.2749 6.79114H73.9582L73.9945 7.33055H74.016C74.2243 6.95711 74.649 6.71927 75.1233 6.71927C75.857 6.71927 76.3395 7.28016 76.3395 8.19301V10.2862ZM81.5653 7.37427H80.7108V9.07103C80.7108 9.503 80.8605 9.71862 81.1629 9.71862C81.3 9.71862 81.4149 9.7038 81.5075 9.68231L81.529 10.2721C81.3785 10.3299 81.1769 10.3588 80.9264 10.3588C80.3143 10.3588 79.9481 10.0209 79.9481 9.13623V7.37427H79.4382V6.79188H79.9481V6.15171L80.7108 5.92127V6.79114H81.5653V7.37427ZM85.6772 10.2862H84.9012V8.29452C84.9012 7.66916 84.6648 7.35278 84.1964 7.35278C83.7939 7.35278 83.4189 7.62619 83.4189 8.17967V10.2862H82.6429V5.18848H83.4189V7.28757H83.4345C83.679 6.90673 84.0333 6.71927 84.4854 6.71927C85.2251 6.71927 85.6772 7.29424 85.6772 8.20783V10.2862ZM89.8898 8.72575H87.5589C87.5737 9.38741 88.0118 9.76085 88.6603 9.76085C89.0049 9.76085 89.3221 9.70306 89.6022 9.59562L89.723 10.135C89.3925 10.2788 89.0034 10.3506 88.5506 10.3506C87.4574 10.3506 86.8104 9.66008 86.8104 8.58942C86.8104 7.51801 87.4729 6.7126 88.4631 6.7126C89.3562 6.7126 89.9165 7.37427 89.9165 8.3738C89.9215 8.49176 89.9126 8.6099 89.8898 8.72575ZM89.1776 8.17226C89.1776 7.63286 88.9056 7.25201 88.409 7.25201C87.9628 7.25201 87.6101 7.64026 87.5597 8.17226H89.1776Z" fill="white"/>
<defs>
<linearGradient id="paint0_linear_506_16" x1="73.4283" y1="30.0413" x2="73.4283" y2="-76.8175" gradientUnits="userSpaceOnUse">
<stop stop-color="#1A1A1A" stop-opacity="0.1"/>
<stop offset="0.123" stop-color="#212121" stop-opacity="0.151"/>
<stop offset="0.308" stop-color="#353535" stop-opacity="0.227"/>
<stop offset="0.532" stop-color="#575757" stop-opacity="0.318"/>
<stop offset="0.783" stop-color="#858585" stop-opacity="0.421"/>
<stop offset="1" stop-color="#B3B3B3" stop-opacity="0.51"/>
</linearGradient>
</defs>
</svg>
