<svg width="101" height="31" viewBox="0 0 101 31" fill="none" xmlns="http://www.w3.org/2000/svg">
<path d="M97.0417 30.4607H4.44906C2.37499 30.4607 0.745361 28.8311 0.745361 26.757V4.53476C0.745361 2.46068 2.37499 0.831055 4.44906 0.831055H97.0417C99.1157 0.831055 100.745 2.46068 100.745 4.53476V26.757C100.745 28.8311 99.1157 30.4607 97.0417 30.4607Z" fill="black"/>
<path d="M97.0417 1.42365C98.7454 1.42365 100.153 2.83105 100.153 4.53476V26.757C100.153 28.4607 98.7454 29.8681 97.0417 29.8681H4.44906C2.74536 29.8681 1.33795 28.4607 1.33795 26.757V4.53476C1.33795 2.83105 2.74536 1.42365 4.44906 1.42365H97.0417ZM97.0417 0.831055H4.44906C2.37499 0.831055 0.745361 2.53476 0.745361 4.53476V26.757C0.745361 28.8311 2.37499 30.4607 4.44906 30.4607H97.0417C99.1157 30.4607 100.745 28.8311 100.745 26.757V4.53476C100.745 2.53476 99.1157 0.831055 97.0417 0.831055Z" fill="#A6A6A6"/>
<path d="M35.8566 8.38683C35.8566 8.97942 35.7084 9.49794 35.338 9.86831C34.8936 10.3128 34.3751 10.535 33.7084 10.535C33.0417 10.535 32.5232 10.3128 32.0788 9.86831C31.6343 9.42386 31.4121 8.90535 31.4121 8.23868C31.4121 7.57201 31.6343 7.05349 32.0788 6.60905C32.5232 6.16461 33.0417 5.94238 33.7084 5.94238C34.0047 5.94238 34.301 6.01646 34.5973 6.1646C34.8936 6.31275 35.1158 6.4609 35.264 6.68312L34.8936 7.05349C34.5973 6.68312 34.2269 6.53498 33.7084 6.53498C33.264 6.53498 32.8195 6.68312 32.5232 7.05349C32.1529 7.34979 32.0047 7.79423 32.0047 8.31275C32.0047 8.83127 32.1529 9.27572 32.5232 9.57201C32.8936 9.86831 33.264 10.0905 33.7084 10.0905C34.2269 10.0905 34.5973 9.94238 34.9677 9.57201C35.1899 9.34979 35.338 9.05349 35.338 8.68312H33.7084V8.09053H35.8566V8.38683ZM39.264 6.53498H37.264V7.94238H39.1158V8.4609H37.264V9.86831H39.264V10.4609H36.6714V6.01646H39.264V6.53498ZM41.7084 10.4609H41.1158V6.53498H39.8566V6.01646H42.9677V6.53498H41.7084V10.4609ZM45.1158 10.4609V6.01646H45.7084V10.4609H45.1158ZM48.2269 10.4609H47.6343V6.53498H46.3751V6.01646H49.4121V6.53498H48.1528V10.4609H48.2269ZM55.264 9.86831C54.8195 10.3128 54.301 10.535 53.6343 10.535C52.9677 10.535 52.4491 10.3128 52.0047 9.86831C51.5603 9.42386 51.338 8.90535 51.338 8.23868C51.338 7.57201 51.5603 7.05349 52.0047 6.60905C52.4491 6.16461 52.9677 5.94238 53.6343 5.94238C54.301 5.94238 54.8195 6.16461 55.264 6.60905C55.7084 7.05349 55.9306 7.57201 55.9306 8.23868C55.9306 8.90535 55.7084 9.42386 55.264 9.86831ZM52.4491 9.49794C52.7454 9.79423 53.1899 10.0165 53.6343 10.0165C54.0788 10.0165 54.5232 9.86831 54.8195 9.49794C55.1158 9.20164 55.338 8.7572 55.338 8.23868C55.338 7.72016 55.1899 7.27572 54.8195 6.97942C54.5232 6.68312 54.0788 6.4609 53.6343 6.4609C53.1899 6.4609 52.7454 6.60905 52.4491 6.97942C52.1529 7.27572 51.9306 7.72016 51.9306 8.23868C51.9306 8.7572 52.0788 9.20164 52.4491 9.49794ZM56.7454 10.4609V6.01646H57.4121L59.5603 9.49794V6.01646H60.1528V10.4609H59.5603L57.264 6.83127V10.4609H56.7454Z" fill="white" stroke="white" stroke-width="0.19" stroke-miterlimit="10"/>
<path d="M51.1899 16.9795C49.4122 16.9795 48.0048 18.3129 48.0048 20.1647C48.0048 21.9425 49.4122 23.3499 51.1899 23.3499C52.9677 23.3499 54.3751 22.0166 54.3751 20.1647C54.3751 18.2388 52.9677 16.9795 51.1899 16.9795ZM51.1899 22.0166C50.227 22.0166 49.4122 21.2018 49.4122 20.0906C49.4122 18.9795 50.227 18.1647 51.1899 18.1647C52.1529 18.1647 52.9677 18.9055 52.9677 20.0906C52.9677 21.2018 52.1529 22.0166 51.1899 22.0166ZM44.3011 16.9795C42.5233 16.9795 41.1159 18.3129 41.1159 20.1647C41.1159 21.9425 42.5233 23.3499 44.3011 23.3499C46.0788 23.3499 47.4862 22.0166 47.4862 20.1647C47.4862 18.2388 46.0788 16.9795 44.3011 16.9795ZM44.3011 22.0166C43.3381 22.0166 42.5233 21.2018 42.5233 20.0906C42.5233 18.9795 43.3381 18.1647 44.3011 18.1647C45.264 18.1647 46.0788 18.9055 46.0788 20.0906C46.0788 21.2018 45.264 22.0166 44.3011 22.0166ZM36.0788 17.9425V19.2758H39.264C39.1899 20.0166 38.8936 20.6092 38.5233 20.9795C38.0788 21.424 37.3381 21.9425 36.0788 21.9425C34.0788 21.9425 32.5973 20.3869 32.5973 18.3869C32.5973 16.3869 34.1529 14.8314 36.0788 14.8314C37.1159 14.8314 37.9307 15.2758 38.5233 15.7943L39.4862 14.8314C38.6714 14.0906 37.6344 13.498 36.1529 13.498C33.4862 13.498 31.1899 15.7203 31.1899 18.3869C31.1899 21.0536 33.4862 23.2758 36.1529 23.2758C37.6344 23.2758 38.6714 22.8314 39.5603 21.8684C40.4492 20.9795 40.7455 19.7203 40.7455 18.7573C40.7455 18.461 40.7455 18.1647 40.6714 17.9425H36.0788ZM69.7085 18.9795C69.4122 18.2388 68.6714 16.9795 67.0418 16.9795C65.4122 16.9795 64.0788 18.2388 64.0788 20.1647C64.0788 21.9425 65.4122 23.3499 67.1899 23.3499C68.5973 23.3499 69.4862 22.461 69.7825 21.9425L68.7455 21.2018C68.3751 21.7203 67.9307 22.0906 67.1899 22.0906C66.4492 22.0906 66.0048 21.7943 65.6344 21.1277L69.8566 19.3499L69.7085 18.9795ZM65.4122 20.0166C65.4122 18.8314 66.3751 18.1647 67.0418 18.1647C67.5603 18.1647 68.0788 18.461 68.227 18.8314L65.4122 20.0166ZM61.9307 23.0536H63.3381V13.7943H61.9307V23.0536ZM59.7085 17.6462C59.3381 17.2758 58.7455 16.9055 58.0048 16.9055C56.4492 16.9055 54.9677 18.3129 54.9677 20.0906C54.9677 21.8684 56.3751 23.2018 58.0048 23.2018C58.7455 23.2018 59.3381 22.8314 59.6344 22.461H59.7085V22.9055C59.7085 24.0906 59.0418 24.7573 58.0048 24.7573C57.1899 24.7573 56.5973 24.1647 56.4492 23.6462L55.264 24.1647C55.6344 24.9795 56.5233 26.0166 58.0788 26.0166C59.7085 26.0166 61.0418 25.0536 61.0418 22.7573V17.1277H59.7085V17.6462ZM58.0788 22.0166C57.1159 22.0166 56.3011 21.2018 56.3011 20.0906C56.3011 18.9795 57.1159 18.1647 58.0788 18.1647C59.0418 18.1647 59.7825 18.9795 59.7825 20.0906C59.7825 21.2018 59.0418 22.0166 58.0788 22.0166ZM76.1529 13.7943H72.8196V23.0536H74.227V19.5721H76.1529C77.7085 19.5721 79.1899 18.461 79.1899 16.6832C79.1899 14.9055 77.7085 13.7943 76.1529 13.7943ZM76.227 18.2388H74.227V15.0536H76.227C77.264 15.0536 77.8566 15.9425 77.8566 16.6092C77.7825 17.424 77.1899 18.2388 76.227 18.2388ZM84.7455 16.9055C83.7085 16.9055 82.6714 17.3499 82.3011 18.3129L83.5603 18.8314C83.8566 18.3129 84.3011 18.1647 84.8196 18.1647C85.5603 18.1647 86.227 18.6092 86.3011 19.3499V19.424C86.0788 19.2758 85.4862 19.0536 84.8936 19.0536C83.5603 19.0536 82.227 19.7943 82.227 21.1277C82.227 22.3869 83.3381 23.2018 84.5233 23.2018C85.4862 23.2018 85.9307 22.7573 86.3011 22.3129H86.3751V23.0536H87.7085V19.498C87.5603 17.8684 86.3011 16.9055 84.7455 16.9055ZM84.5973 22.0166C84.1529 22.0166 83.4862 21.7943 83.4862 21.2018C83.4862 20.461 84.301 20.2388 84.9677 20.2388C85.5603 20.2388 85.8566 20.3869 86.227 20.5351C86.0788 21.424 85.3381 22.0166 84.5973 22.0166ZM92.3751 17.1277L90.8196 21.1277H90.7455L89.1159 17.1277H87.6344L90.0788 22.7573L88.6714 25.8684H90.0788L93.8566 17.1277H92.3751ZM79.9307 23.0536H81.3381V13.7943H79.9307V23.0536Z" fill="white"/>
<path d="M8.44913 6.38672C8.22691 6.60894 8.15283 6.97931 8.15283 7.42376V23.7941C8.15283 24.2386 8.30098 24.6089 8.5232 24.8312L8.59728 24.9052L17.7825 15.7201V15.5719L8.44913 6.38672Z" fill="url(#paint0_linear_509_52)"/>
<path d="M20.7455 18.8305L17.7085 15.7934V15.5712L20.7455 12.5342L20.8196 12.6083L24.4492 14.6823C25.4863 15.2749 25.4863 16.2379 24.4492 16.8305L20.7455 18.8305Z" fill="url(#paint1_linear_509_52)"/>
<path d="M20.8196 18.7566L17.7085 15.6455L8.44922 24.9048C8.81959 25.2751 9.33811 25.2751 10.0048 24.9788L20.8196 18.7566Z" fill="url(#paint2_linear_509_52)"/>
<path d="M20.8196 12.5342L10.0048 6.38608C9.33811 6.01571 8.81959 6.08978 8.44922 6.46015L17.7085 15.6453L20.8196 12.5342Z" fill="url(#paint3_linear_509_52)"/>
<path opacity="0.2" d="M20.7455 18.6826L10.0048 24.7567C9.41218 25.1271 8.89366 25.053 8.52329 24.7567L8.44922 24.8308L8.52329 24.9048C8.89366 25.2011 9.41218 25.2752 10.0048 24.9048L20.7455 18.6826Z" fill="black"/>
<path opacity="0.12" d="M8.44913 24.7566C8.22691 24.5344 8.15283 24.164 8.15283 23.7196V23.7937C8.15283 24.2381 8.30098 24.6085 8.5232 24.8307V24.7566H8.44913ZM24.4491 16.6085L20.7454 18.6825L20.8195 18.7566L24.4491 16.6825C24.9676 16.3862 25.1899 16.0159 25.1899 15.6455C25.1899 16.0159 24.8936 16.3122 24.4491 16.6085Z" fill="black"/>
<path opacity="0.25" d="M10.0047 6.46041L24.4491 14.6826C24.8936 14.9789 25.1899 15.2752 25.1899 15.6456C25.1899 15.2752 24.9676 14.9049 24.4491 14.6086L10.0047 6.38634C8.96765 5.79375 8.15283 6.23819 8.15283 7.42338V7.49745C8.15283 6.38634 8.96765 5.86782 10.0047 6.46041Z" fill="white"/>
<defs>
<linearGradient id="paint0_linear_509_52" x1="16.8936" y1="7.28301" x2="4.46172" y2="19.7141" gradientUnits="userSpaceOnUse">
<stop stop-color="#00A0FF"/>
<stop offset="0.007" stop-color="#00A1FF"/>
<stop offset="0.26" stop-color="#00BEFF"/>
<stop offset="0.512" stop-color="#00D2FF"/>
<stop offset="0.76" stop-color="#00DFFF"/>
<stop offset="1" stop-color="#00E3FF"/>
</linearGradient>
<linearGradient id="paint1_linear_509_52" x1="25.8078" y1="15.646" x2="7.88405" y2="15.646" gradientUnits="userSpaceOnUse">
<stop stop-color="#FFE000"/>
<stop offset="0.409" stop-color="#FFBD00"/>
<stop offset="0.775" stop-color="#FFA500"/>
<stop offset="1" stop-color="#FF9C00"/>
</linearGradient>
<linearGradient id="paint2_linear_509_52" x1="19.1359" y1="17.3462" x2="2.27811" y2="34.204" gradientUnits="userSpaceOnUse">
<stop stop-color="#FF3A44"/>
<stop offset="1" stop-color="#C31162"/>
</linearGradient>
<linearGradient id="paint3_linear_509_52" x1="6.1507" y1="0.960893" x2="13.6788" y2="8.48904" gradientUnits="userSpaceOnUse">
<stop stop-color="#32A071"/>
<stop offset="0.069" stop-color="#2DA771"/>
<stop offset="0.476" stop-color="#15CF74"/>
<stop offset="0.801" stop-color="#06E775"/>
<stop offset="1" stop-color="#00F076"/>
</linearGradient>
</defs>
</svg>
