<svg width="30" height="31" viewBox="0 0 30 31" fill="none" xmlns="http://www.w3.org/2000/svg">
<path d="M0.483887 6.62213C0.483887 5.16392 1.62786 3.98181 3.03903 3.98181H26.961C28.3722 3.98181 29.5161 5.16392 29.5161 6.62213C29.5161 8.08033 28.3722 9.26248 26.961 9.26248H3.03903C1.62786 9.26248 0.483887 8.08033 0.483887 6.62213Z" fill="white"/>
<path d="M0.483887 15.9028C0.483887 14.4445 1.62786 13.2625 3.03903 13.2625H26.961C28.3722 13.2625 29.5161 14.4445 29.5161 15.9028C29.5161 17.361 28.3722 18.5431 26.961 18.5431H3.03903C1.62786 18.5431 0.483887 17.361 0.483887 15.9028Z" fill="white"/>
<path d="M0.483887 25.1834C0.483887 23.7253 1.62786 22.5431 3.03903 22.5431H26.961C28.3722 22.5431 29.5161 23.7253 29.5161 25.1834C29.5161 26.6416 28.3722 27.8237 26.961 27.8237H3.03903C1.62786 27.8237 0.483887 26.6416 0.483887 25.1834Z" fill="white"/>
</svg>
